<svg width="30" height="30" viewBox="0 0 30 30" fill="none" xmlns="http://www.w3.org/2000/svg">
<g clip-path="url(#clip0_89_572)">
<path d="M27.2001 9.56852C28.9445 8.99829 30.0693 5.47944 29.1757 3.97739C29.1938 4.93329 27.4646 5.62815 26.8821 4.5918C26.5224 2.92141 28.2202 0.969363 29.7105 0.784383C29.022 -0.290754 25.9276 -0.434543 25.2569 1.46501C24.7225 2.97638 24.5635 3.59366 23.3157 3.09368C21.9505 2.54606 23.9629 0.592078 24.2853 0.350145C19.965 -0.522844 21 3.9372 19.3806 3.4838C17.7598 3.02987 19.3061 1.677 19.4867 1.50327C16.8991 1.04641 16.6582 2.53862 14.93 3.43124C12.4695 3.18491 10.0302 3.63339 7.87351 4.66388C4.81099 6.12274 2.29608 8.76075 1.06784 12.2085H1.06737L1.06099 12.2256C1.06005 12.2281 1.05853 12.2306 1.05759 12.233L1.05366 12.2448C-0.170185 15.7052 0.124717 19.3478 1.59097 22.4162C3.05476 25.487 5.70114 28.0069 9.16063 29.2322L9.16603 29.2342L9.16796 29.2351L9.17335 29.237L9.17874 29.239L9.1969 29.2445C12.649 30.458 16.2818 30.1616 19.3438 28.6987C22.4142 27.2359 24.934 24.5891 26.1597 21.1296L26.1622 21.1227L26.1632 21.1198L26.1641 21.1174L26.1661 21.1119C26.8712 19.1137 27.0675 17.0567 26.8281 15.0831C27.4214 14.1213 28.0582 13.5271 28.4263 12.9637C29.4917 11.3306 28.6687 10.279 28.6687 10.279C28.6687 10.279 28.2663 11.252 27.1681 11.3384C26.0694 11.4249 25.4556 10.1402 27.2001 9.56852ZM23.4594 20.1615L23.456 20.1718C22.4912 22.8937 20.524 24.9562 18.1083 26.1104C15.692 27.2621 12.8508 27.4936 10.1288 26.5324L10.1185 26.529C7.39708 25.5637 5.33411 23.5969 4.17952 21.1812C3.02827 18.7644 2.79618 15.9237 3.758 13.2008L3.75946 13.1969L3.76146 13.191C4.72667 10.4691 6.69395 8.40608 9.10919 7.25243C11.5259 6.10124 14.3666 5.86862 17.0886 6.83038L17.095 6.83237L17.0984 6.83337C19.8208 7.79958 21.8838 9.76581 23.0379 12.1811C24.1891 14.5977 24.4212 17.4385 23.4594 20.1615Z" fill="black"/>
<path d="M13.9238 15.5315L9.54527 8.86279L8.20166 9.64449L12.9336 18.9346L19.8879 14.3263L19.1062 12.9837L13.9238 15.5315Z" fill="black"/>
</g>
<defs>
<clipPath id="clip0_89_572">
<rect width="30" height="30" fill="white"/>
</clipPath>
</defs>
</svg>
