<svg width="125" height="125" viewBox="0 0 125 125" fill="none" xmlns="http://www.w3.org/2000/svg">
<g clip-path="url(#clip0_166_189)">
<path d="M125 62.5C125 27.9822 97.0178 0 62.5 0C27.9822 0 0 27.9822 0 62.5C0 97.0178 27.9822 125 62.5 125C97.0178 125 125 97.0178 125 62.5Z" fill="white"/>
<path d="M91.188 41.9647V34.4809L84.4059 33.3504C83.833 30.7637 82.8103 28.3512 81.43 26.185L85.4313 20.5834L80.1392 15.2913L74.5374 19.2927C72.3712 17.9121 69.9587 16.89 67.3723 16.3167L66.2418 9.53442H58.7577L57.6275 16.3165C55.0408 16.8896 52.6283 17.9118 50.4624 19.2925L44.8603 15.2911L39.5682 20.5832L43.5696 26.1848C42.1892 28.351 41.1667 30.7637 40.5936 33.3501L33.8115 34.4806V41.9645L40.5936 43.0947C41.1665 45.6816 42.1889 48.0939 43.5696 50.2601L39.5682 55.8619L44.8603 61.1537L50.4624 57.1524C52.6285 58.533 55.041 59.5553 57.6275 60.1284L58.7577 66.9104H66.2418L67.3721 60.1284C69.9587 59.5555 72.3712 58.533 74.5372 57.1524L80.139 61.1537L85.4311 55.8619L81.4297 50.2601C82.8103 48.0939 83.8326 45.6814 84.4057 43.0947L91.188 41.9647ZM62.4998 48.4686C56.841 48.4686 52.2538 43.8814 52.2538 38.2227C52.2538 32.5641 56.841 27.9769 62.4998 27.9769C68.1583 27.9769 72.7457 32.5639 72.7457 38.2227C72.7455 43.8814 68.1583 48.4686 62.4998 48.4686Z" fill="black"/>
<path d="M9.53687 97.8108V105.336L19.6661 115.465H105.334L115.463 105.336V97.8108H9.53687ZM55.8793 108.841H51.4658V104.427H55.8793V108.841ZM64.7066 108.841H60.2931V104.427H64.7066V108.841ZM73.5336 108.841H69.1201V104.427H73.5336V108.841Z" fill="black"/>
<path d="M95.6016 36.0208V45.7037L87.8843 46.9902C87.5333 48.0053 87.1193 49.0011 86.6451 49.9684L91.1966 56.341L80.6154 66.9182L74.2471 62.3689C73.2775 62.8429 72.2839 63.2566 71.2668 63.6081L69.9801 71.3254H55.0199L53.7332 63.6081C52.7161 63.2566 51.7225 62.8429 50.753 62.3689L44.3846 66.9182L33.8029 56.341L38.3545 49.9684C37.8805 49.0008 37.4667 48.0053 37.1153 46.9902L29.3979 45.7037V36.0208H13.9504V93.3972H111.049V36.0208H95.6016Z" fill="black"/>
</g>
<defs>
<clipPath id="clip0_166_189">
<rect width="125" height="125" fill="white"/>
</clipPath>
</defs>
</svg>
