<svg width="30" height="30" viewBox="0 0 30 30" fill="none" xmlns="http://www.w3.org/2000/svg">
<path d="M14.3438 18.0938L9.8125 13.5625C9.75 13.5 9.70333 13.4325 9.6725 13.36C9.64167 13.2875 9.62583 13.2092 9.625 13.125C9.625 12.9583 9.6825 12.8125 9.7975 12.6875C9.9125 12.5625 10.0633 12.5 10.25 12.5H19.75C19.9375 12.5 20.0888 12.5625 20.2038 12.6875C20.3188 12.8125 20.3758 12.9583 20.375 13.125C20.375 13.1667 20.3125 13.3125 20.1875 13.5625L15.6562 18.0938C15.5521 18.1979 15.4479 18.2708 15.3438 18.3125C15.2396 18.3542 15.125 18.375 15 18.375C14.875 18.375 14.7604 18.3542 14.6563 18.3125C14.5521 18.2708 14.4479 18.1979 14.3438 18.0938Z" fill="black"/>
</svg>
