<svg width="14" height="11" viewBox="0 0 14 11" fill="none" xmlns="http://www.w3.org/2000/svg">
<path d="M8.80613 5.33739C8.80613 6.38289 7.96126 7.22776 6.91576 7.22776C5.87026 7.22776 5.02539 6.38289 5.02539 5.33739C5.02539 4.29189 5.87026 3.44702 6.91576 3.44702C7.96126 3.44702 8.80613 4.29189 8.80613 5.33739Z" stroke="white" stroke-width="1.5" stroke-linecap="round" stroke-linejoin="round"/>
<path d="M6.91577 9.91831C9.14011 9.91831 11.2132 8.766 12.6562 6.77173C13.2233 5.99063 13.2233 4.6777 12.6562 3.89658C11.2132 1.90227 9.14011 0.75 6.91577 0.75C4.69142 0.75 2.61831 1.90227 1.17533 3.89658C0.608222 4.6777 0.608222 5.99063 1.17533 6.77173C2.61831 8.766 4.69142 9.91831 6.91577 9.91831Z" stroke="white" stroke-width="1.5" stroke-linecap="round" stroke-linejoin="round"/>
</svg>
