<svg width="30" height="30" viewBox="0 0 30 30" fill="none" xmlns="http://www.w3.org/2000/svg">
<path fill-rule="evenodd" clip-rule="evenodd" d="M11.3745 2.99687C11.5609 3.4799 11.3205 4.02262 10.8375 4.20908C10.6607 4.27733 10.486 4.3498 10.3135 4.42637C9.84026 4.63646 9.28633 4.42315 9.07625 3.94991C8.86616 3.47668 9.07948 2.92275 9.55271 2.71266C9.75334 2.6236 9.95658 2.53928 10.1623 2.45988C10.6453 2.27342 11.188 2.51385 11.3745 2.99687ZM7.05963 5.30027C7.41671 5.67521 7.40223 6.26863 7.02729 6.62571C6.8902 6.75627 6.75631 6.89015 6.62576 7.02723C6.26869 7.40217 5.67526 7.41666 5.30033 7.05957C4.92539 6.7025 4.91091 6.10908 5.26799 5.73415C5.41958 5.57498 5.57503 5.41952 5.7342 5.26793C6.10914 4.91086 6.70255 4.92533 7.05963 5.30027ZM3.94996 9.0762C4.4232 9.28628 4.63651 9.84021 4.42643 10.3134C4.34985 10.4859 4.27739 10.6606 4.20914 10.8374C4.02268 11.3205 3.47995 11.5609 2.99693 11.3744C2.5139 11.188 2.27348 10.6452 2.45994 10.1622C2.53934 9.95652 2.62365 9.75328 2.71271 9.55266C2.9228 9.07942 3.47674 8.86611 3.94996 9.0762ZM2.52636 13.7549C3.04398 13.7676 3.45345 14.1973 3.44094 14.7148C3.43865 14.8096 3.4375 14.9046 3.4375 14.9999C3.4375 15.0953 3.43865 15.1903 3.44094 15.2851C3.45345 15.8026 3.04398 16.2323 2.52636 16.2449C2.00874 16.2574 1.57899 15.8479 1.56649 15.3303C1.56384 15.2204 1.5625 15.1103 1.5625 14.9999C1.5625 14.8896 1.56384 14.7794 1.56649 14.6696C1.57899 14.1519 2.00874 13.7424 2.52636 13.7549ZM27.0031 18.6254C27.4861 18.8119 27.7265 19.3547 27.54 19.8377C27.4606 20.0433 27.3764 20.2466 27.2873 20.4472C27.0773 20.9204 26.5233 21.1338 26.05 20.9237C25.5768 20.7136 25.3635 20.1597 25.5736 19.6864C25.6501 19.5139 25.7226 19.3392 25.7909 19.1624C25.9774 18.6794 26.52 18.4391 27.0031 18.6254ZM2.99693 18.6254C3.47995 18.4391 4.02268 18.6794 4.20914 19.1624C4.27739 19.3392 4.34985 19.5139 4.42643 19.6864C4.63651 20.1597 4.4232 20.7136 3.94996 20.9237C3.47674 21.1338 2.9228 20.9204 2.71271 20.4472C2.62365 20.2466 2.53934 20.0433 2.45994 19.8377C2.27348 19.3547 2.5139 18.8119 2.99693 18.6254ZM24.6996 22.9403C25.0746 23.2974 25.0891 23.8908 24.732 24.2657C24.5804 24.4249 24.425 24.5803 24.2658 24.7319C23.8909 25.0891 23.2975 25.0746 22.9404 24.6996C22.5833 24.3247 22.5978 23.7313 22.9728 23.3742C23.1098 23.2436 23.2436 23.1097 23.3743 22.9727C23.7314 22.5977 24.3248 22.5832 24.6996 22.9403ZM5.30033 22.9403C5.67526 22.5832 6.26869 22.5977 6.62576 22.9727C6.75633 23.1097 6.8902 23.2436 7.02729 23.3742C7.40223 23.7313 7.41671 24.3247 7.05963 24.6996C6.70255 25.0746 6.10914 25.0891 5.7342 24.7319C5.57504 24.5803 5.41958 24.4249 5.26799 24.2657C4.91091 23.8908 4.92539 23.2974 5.30033 22.9403ZM9.07625 26.0499C9.28634 25.5767 9.84026 25.3634 10.3135 25.5736C10.486 25.6501 10.6607 25.7226 10.8375 25.7908C11.3205 25.9773 11.5609 26.5199 11.3745 27.0031C11.188 27.4861 10.6453 27.7264 10.1623 27.5399C9.95658 27.4606 9.75334 27.3763 9.55271 27.2872C9.07948 27.0772 8.86616 26.5232 9.07625 26.0499ZM20.9238 26.0499C21.1339 26.5232 20.9205 27.0772 20.4473 27.2872C20.2466 27.3763 20.0434 27.4606 19.8378 27.5399C19.3548 27.7264 18.812 27.4861 18.6255 27.0031C18.4391 26.5199 18.6795 25.9773 19.1625 25.7908C19.3393 25.7226 19.514 25.6501 19.6865 25.5736C20.1598 25.3634 20.7136 25.5767 20.9238 26.0499ZM13.755 27.4736C13.7676 26.9559 14.1974 26.5464 14.7149 26.5589C14.8096 26.5613 14.9046 26.5624 15 26.5624C15.0954 26.5624 15.1904 26.5613 15.2851 26.5589C15.8026 26.5464 16.2324 26.9559 16.245 27.4736C16.2575 27.9912 15.848 28.4209 15.3304 28.4334C15.2205 28.4361 15.1104 28.4374 15 28.4374C14.8896 28.4374 14.7795 28.4361 14.6696 28.4334C14.152 28.4209 13.7425 27.9912 13.755 27.4736Z" fill="#1C274C"/>
<path fill-rule="evenodd" clip-rule="evenodd" d="M15 3.4375C21.3858 3.4375 26.5625 8.61421 26.5625 15C26.5625 15.5177 26.9823 15.9375 27.5 15.9375C28.0177 15.9375 28.4375 15.5177 28.4375 15C28.4375 7.57868 22.4214 1.5625 15 1.5625C14.4822 1.5625 14.0625 1.98224 14.0625 2.5C14.0625 3.01776 14.4822 3.4375 15 3.4375Z" fill="#1C274C"/>
<path fill-rule="evenodd" clip-rule="evenodd" d="M15 10.3125C15.5178 10.3125 15.9375 10.7322 15.9375 11.25V15.3125H20C20.5177 15.3125 20.9375 15.7323 20.9375 16.25C20.9375 16.7677 20.5177 17.1875 20 17.1875H15C14.4822 17.1875 14.0625 16.7677 14.0625 16.25V11.25C14.0625 10.7322 14.4822 10.3125 15 10.3125Z" fill="#1C274C"/>
</svg>
