<svg width="125" height="125" viewBox="0 0 125 125" fill="none" xmlns="http://www.w3.org/2000/svg">
<g clip-path="url(#clip0_166_203)">
<path d="M125 62.5C125 27.9822 97.0178 0 62.5 0C27.9822 0 0 27.9822 0 62.5C0 97.0178 27.9822 125 62.5 125C97.0178 125 125 97.0178 125 62.5Z" fill="white"/>
<path d="M81.2938 88.6959C78.6874 83.5818 74.6237 79.6233 69.7822 77.6095V69.7767L69.7917 67.9185C69.7885 67.9185 69.7854 67.9185 69.7822 67.9194V67.8701C67.4246 68.3303 64.9907 68.5783 62.5005 68.5783C60.1875 68.5783 57.9277 68.3558 55.7274 67.9568C55.5744 67.9259 55.419 67.9035 55.2668 67.8701V67.8789C55.2505 67.8756 55.2343 67.8732 55.218 67.8701V77.6095C52.734 78.6426 50.4587 80.1923 48.4762 82.145C48.4054 82.2142 48.3328 82.2793 48.2628 82.3493C48.0447 82.5694 47.8356 82.8007 47.6254 83.0304C47.482 83.1871 47.3353 83.3381 47.1951 83.4994C47.071 83.6424 46.9542 83.7928 46.833 83.938C46.6153 84.2003 46.3976 84.4617 46.1884 84.7352C46.1705 84.759 46.1538 84.7836 46.1355 84.8074C45.242 85.9851 44.4253 87.2646 43.7065 88.6475H43.7332C43.7244 88.6642 43.7149 88.6801 43.7065 88.6959H81.2938Z" fill="black"/>
<path d="M33.8227 95.0522V114.456L33.8223 114.534H33.8227V114.583H91.1776V95.0522H33.8227Z" fill="black"/>
<path d="M111.802 16.3955C110.169 14.5454 107.846 13.4838 105.429 13.4838H95.7151V10.4717V10.466V10.4167H29.285V13.4836H19.5717C17.1533 13.4836 14.8301 14.5452 13.1964 16.3953C11.2113 18.6447 10.3546 21.8975 10.7778 25.5667C10.8528 27.1784 11.6662 35.6001 20.3829 41.5925C25.4146 45.0528 30.2347 46.6033 34.5105 47.2765C40.4121 56.4985 50.7377 62.6163 62.5004 62.6163C74.2608 62.6163 84.5865 56.4985 90.4886 47.2765C94.7644 46.6041 99.5847 45.0528 104.617 41.5925C113.333 35.6003 114.147 27.1784 114.222 25.5667C114.645 21.8975 113.788 18.6447 111.802 16.3955ZM107.307 24.865L107.282 25.0383L107.282 25.2481C107.276 25.5016 107.055 31.4851 100.68 35.8672C98.8541 37.1229 97.0924 38.048 95.3822 38.7529C95.0087 38.8976 94.636 39.0439 94.2525 39.1686C95.2014 36.0794 95.7153 32.8012 95.7153 29.4013V20.4318H105.429C105.734 20.4318 106.184 20.5297 106.594 20.9929C107.261 21.7496 107.521 23.1603 107.307 24.865ZM62.0857 41.9961L55.238 45.8068C54.9487 45.9681 54.5922 45.9467 54.3245 45.751C54.0576 45.5579 53.9259 45.2249 53.99 44.9006L55.498 37.21C55.5548 36.9215 55.4587 36.6234 55.2429 36.424L49.5029 31.0875C49.2606 30.8625 49.1707 30.5168 49.2732 30.2021C49.3758 29.8874 49.6514 29.6601 49.98 29.6204L57.7592 28.6779C58.0513 28.6429 58.304 28.4585 58.4287 28.1914L61.7285 21.0849C61.8682 20.7844 62.1683 20.5921 62.5006 20.5921C62.8312 20.5921 63.1317 20.7844 63.271 21.0849L66.571 28.1914C66.6955 28.4583 66.9482 28.6429 67.2402 28.6779L75.0193 29.6204C75.3479 29.6601 75.6237 29.8874 75.7261 30.2021C75.8286 30.5168 75.7389 30.8625 75.4968 31.0875L69.7564 36.424C69.541 36.6234 69.4429 36.9215 69.5001 37.21L71.0093 44.9006C71.073 45.2249 70.9425 45.5577 70.674 45.751C70.4062 45.9465 70.0514 45.9679 69.7613 45.8068L62.9124 41.9961C62.6564 41.8539 62.3433 41.8539 62.0857 41.9961ZM24.3186 35.8672C17.9453 31.4851 17.7248 25.5016 17.7191 25.2845L17.7179 25.0739L17.6912 24.865C17.479 23.1603 17.7384 21.7498 18.4065 20.9931C18.8155 20.5299 19.2655 20.432 19.5715 20.432H29.2846V29.4013C29.2846 32.2997 29.6769 35.102 30.3745 37.7819C30.4882 38.2514 30.5934 38.7236 30.7255 39.191C28.6726 38.4524 26.5415 37.3947 24.3186 35.8672Z" fill="black"/>
</g>
<defs>
<clipPath id="clip0_166_203">
<rect width="125" height="125" fill="white"/>
</clipPath>
</defs>
</svg>
