<svg width="29" height="29" viewBox="0 0 29 29" fill="none" xmlns="http://www.w3.org/2000/svg">
<path d="M11.1358 18.7551C9.00637 18.7551 7.20432 18.0174 5.7297 16.542C4.25508 15.0666 3.51738 13.2645 3.5166 11.1358C3.51582 9.00715 4.25352 7.2051 5.7297 5.7297C7.20588 4.2543 9.00793 3.5166 11.1358 3.5166C13.2638 3.5166 15.0662 4.2543 16.5432 5.7297C18.0201 7.2051 18.7574 9.00715 18.7551 11.1358C18.7551 11.9955 18.6183 12.8062 18.3448 13.5681C18.0713 14.3301 17.7001 15.0041 17.2312 15.5902L23.7955 22.1544C24.0104 22.3694 24.1179 22.6429 24.1179 22.975C24.1179 23.3071 24.0104 23.5806 23.7955 23.7955C23.5806 24.0104 23.3071 24.1179 22.975 24.1179C22.6429 24.1179 22.3694 24.0104 22.1545 23.7955L15.5902 17.2312C15.0041 17.7001 14.3301 18.0713 13.5681 18.3448C12.8062 18.6183 11.9955 18.7551 11.1358 18.7551ZM11.1358 16.4107C12.6011 16.4107 13.8467 15.8981 14.8728 14.8728C15.8989 13.8475 16.4115 12.6019 16.4107 11.1358C16.4099 9.66983 15.8973 8.42457 14.8728 7.40007C13.8483 6.37558 12.6027 5.86255 11.1358 5.86099C9.66905 5.85942 8.42379 6.37245 7.40007 7.40007C6.37636 8.42769 5.86333 9.67295 5.86099 11.1358C5.85864 12.5987 6.37167 13.8444 7.40007 14.8728C8.42848 15.9012 9.67373 16.4138 11.1358 16.4107Z" fill="black"/>
</svg>
