<svg width="125" height="125" viewBox="0 0 125 125" fill="none" xmlns="http://www.w3.org/2000/svg">
<g clip-path="url(#clip0_162_78)">
<path d="M125 62.5C125 27.9822 97.0178 0 62.5 0C27.9822 0 0 27.9822 0 62.5C0 97.0178 27.9822 125 62.5 125C97.0178 125 125 97.0178 125 62.5Z" fill="white"/>
<path d="M27.568 34.6783C32.2118 34.6783 35.9742 30.9127 35.9742 26.2718C35.9742 21.6261 32.2118 17.8638 27.568 17.8638C22.9221 17.8638 19.1599 21.6261 19.1599 26.2718C19.1599 30.9127 22.9221 34.6783 27.568 34.6783Z" fill="black"/>
<path d="M56.1295 60.3059C56.1295 60.1346 56.1011 59.9711 56.0793 59.806L68.6362 50.6926C69.425 50.1188 69.6027 49.0094 69.029 48.2188C68.696 47.7615 68.1601 47.4879 67.5941 47.4879C67.2185 47.4879 66.8603 47.6058 66.5554 47.8259L53.9735 56.9584C53.505 56.7447 52.9911 56.6174 52.4426 56.6174H45.6031L43.9433 47.1675C43.0318 42.4026 41.1193 38.6606 37.0458 38.6606H19.7758C15.7023 38.6606 11.2705 43.0924 11.2705 47.1675V75.4244C11.2705 77.4612 12.9207 79.1129 14.9574 79.1129C15.9602 79.1129 14.9574 79.1129 17.5317 79.1129L18.9335 103.212C18.9335 105.379 20.6921 107.136 22.8594 107.136C24.4843 107.136 28.5423 107.136 30.7093 107.136C32.8766 107.136 34.6336 105.379 34.6336 103.212L36.4754 55.4781H36.5681L37.6227 60.1346C37.9715 62.3553 39.8826 63.9928 42.1301 63.9928H52.4428C54.4794 63.9928 56.1295 62.3427 56.1295 60.3059Z" fill="black"/>
<path d="M49.3577 20.7698V51.4673H54.1856V25.5976H108.902V71.7313H54.1856V65.9244H49.3577V76.5591H113.73V20.7698H49.3577Z" fill="black"/>
<path d="M73.0493 40.3801L85.3484 44.7224V31.6672C79.6623 31.6672 74.8393 35.3101 73.0493 40.3801Z" fill="black"/>
<path d="M77.3145 52.4198C77.3145 59.6304 83.159 65.4734 90.368 65.4734C97.5785 65.4734 103.421 59.6304 103.421 52.4198C103.421 45.2127 97.5785 39.3679 90.368 39.3679V52.4198L78.0673 48.0807C77.5894 49.4385 77.3145 50.8954 77.3145 52.4198Z" fill="black"/>
</g>
<defs>
<clipPath id="clip0_162_78">
<rect width="125" height="125" fill="white"/>
</clipPath>
</defs>
</svg>
