<svg width="125" height="125" viewBox="0 0 125 125" fill="none" xmlns="http://www.w3.org/2000/svg">
<g clip-path="url(#clip0_164_89)">
<path d="M125 62.5C125 27.9822 97.0178 0 62.5 0C27.9822 0 0 27.9822 0 62.5C0 97.0178 27.9822 125 62.5 125C97.0178 125 125 97.0178 125 62.5Z" fill="white"/>
<path d="M81.8603 39.9736H69.2242V27.3327C69.2242 27.2329 69.1401 27.1494 69.0421 27.1494C61.8716 27.1494 56.0422 32.9819 56.0422 40.1479C56.0422 41.3012 56.2433 42.3996 56.531 43.4649L63.9598 37.6876C64.5245 37.2421 65.4277 37.3494 65.8775 37.9231C66.3486 38.5266 66.2411 39.391 65.6389 39.8542L57.5597 46.1471C59.7292 50.2973 64.0446 53.1509 69.0425 53.1509C76.2159 53.1509 82.0426 47.326 82.0426 40.151C82.0424 40.0557 81.9651 39.9736 81.8603 39.9736Z" fill="#010002" stroke="black" stroke-width="0.195676"/>
<path d="M82.1037 29.851C81.9929 29.7223 81.8327 29.6464 81.6629 29.6423C81.4839 29.638 81.329 29.7063 81.2123 29.8296L73.8776 37.5666C73.7122 37.7409 73.6667 37.997 73.7615 38.2177C73.8562 38.4384 74.0734 38.5815 74.3138 38.5815H85.0084C85.01 38.5815 85.0115 38.5817 85.0123 38.5815C85.3444 38.5815 85.6135 38.3122 85.6135 37.9803C85.6135 37.9343 85.6084 37.8896 85.5987 37.8467C85.2676 34.8856 84.0601 32.122 82.1037 29.851ZM75.7118 37.3791L81.6161 31.151C83.0402 32.9748 83.966 35.1051 84.323 37.3791H75.7118Z" fill="#010002" stroke="black" stroke-width="0.195676"/>
<path d="M71.4377 36.4876C71.5099 36.5163 71.5854 36.5303 71.6601 36.5303C71.822 36.5303 71.9808 36.4649 72.0967 36.3426L79.1362 28.9141C79.2539 28.7898 79.3131 28.6211 79.2989 28.4507C79.2847 28.2801 79.1981 28.1236 79.0615 28.0205C76.9071 26.3973 74.3697 25.3909 71.7236 25.1104C71.5549 25.092 71.3849 25.1473 71.2583 25.2613C71.1317 25.3752 71.0593 25.5377 71.0593 25.7081V35.9291C71.0591 36.1755 71.209 36.3966 71.4377 36.4876ZM72.2613 26.3934C74.2309 26.7032 76.1195 27.4529 77.7892 28.5878L72.2613 34.421V26.3934Z" fill="#010002" stroke="black" stroke-width="0.195676"/>
<path d="M35.2042 27.7292C31.7814 27.7292 29.0068 30.5054 29.0066 33.9282C29.0066 37.3512 31.7814 40.1258 35.2042 40.1258C38.6285 40.1258 41.4031 37.3512 41.4031 33.9282C41.4031 30.5054 38.6285 27.7292 35.2042 27.7292Z" fill="#010002" stroke="black" stroke-width="0.195676"/>
<path d="M107.035 92.2841L102.675 88.2729C101.951 90.2996 100.511 93.3213 97.6645 96.5162C95.2387 99.2431 92.1865 101.636 88.5952 103.663L93.1585 107.859C97.3845 111.757 103.932 111.417 107.759 107.128C111.583 102.831 111.255 96.1697 107.035 92.2841Z" fill="#010002" stroke="black" stroke-width="0.195676"/>
<path d="M95.8377 95.1923C98.1831 92.5635 99.8401 89.6429 100.761 86.5255L96.9962 83.0563C93.1696 79.5337 89.1883 81.1432 85.2542 84.5167C85.2542 84.5167 85.1754 84.5763 85.0481 84.6875C85.0471 84.6867 85.0461 84.6859 85.0452 84.6852C83.3912 83.4352 81.502 82.8738 79.5004 82.4524C77.7671 82.0872 75.417 81.731 74.2962 80.1897C73.4115 78.9733 74.3051 77.2747 74.8847 76.1325C75.0983 75.7118 75.3233 75.2966 75.5483 74.8817L88.5918 74.8858C91.9317 74.8858 93.8729 72.4632 93.8729 69.4705V19.8339C93.885 16.8462 91.5217 14.4233 88.5978 14.4233H19.869C16.9426 14.4233 14.5745 16.8462 14.5745 19.8339V69.4651C14.5745 72.4602 16.9424 74.8773 19.869 74.8773H46.2401C46.2401 74.8773 47.3815 85.7076 38.241 85.7076V91.1258H46.2401H62.2159H70.2163V85.7076C60.7302 85.7076 62.2159 74.8773 62.2159 74.8773L73.5329 74.881C72.5283 76.7494 71.7172 78.6681 72.5727 80.692C73.3535 82.5397 75.7907 83.3587 77.5565 83.8103C79.7934 84.3818 81.945 84.6592 83.869 85.984C83.5229 86.4327 83.2699 86.806 83.2699 86.806C80.5044 91.0856 78.7697 94.6204 82.507 98.0597L86.8581 102.071C89.0338 100.95 92.6934 98.7269 95.8377 95.1923ZM28.0486 62.0323H26.4005V48.0457H28.0546L28.0486 62.0323ZM54.5835 71.5215C52.8102 71.5215 51.3708 70.0551 51.3708 68.2551C51.3708 66.4554 52.8104 64.9948 54.5835 64.9948C56.3597 64.9948 57.7978 66.455 57.7978 68.2551C57.7978 70.0521 56.3595 71.5215 54.5835 71.5215ZM42.6874 62.0323L42.6845 47.9817H44.2746V52.382C44.2746 52.382 44.2746 52.397 44.2746 52.4028C44.2746 55.7386 46.9203 55.2533 47.815 54.61C48.5657 54.0701 52.0321 51.7294 52.0321 51.7294L54.2539 50.2244C54.2539 50.2244 55.8465 49.1316 55.8529 49.1262C57.6031 47.8403 56.2165 46.0342 56.2165 46.0342L65.0815 39.1349C65.2809 38.9782 65.317 38.6923 65.1619 38.4941C65.0066 38.299 64.721 38.2588 64.5209 38.4135L55.6277 45.3323L55.6246 45.3293C55.2148 45.0209 54.9613 44.893 54.4725 44.8735C53.7944 44.8438 53.0833 45.0801 52.3612 45.5796L52.0288 45.824L49.1514 47.8102V46.9625C49.031 40.4029 41.2655 40.6087 41.2655 40.6087H38.0826L35.4004 45.091L32.7077 40.6116H29.6503C21.8925 40.6116 21.8345 46.2056 21.8345 48.3082H21.8314V62.0294H20.2415V20.1863H88.2232V62.0323H42.6874ZM93.9411 94.0114C93.6276 94.3675 93.183 94.5459 92.742 94.5305C92.4025 94.5185 92.067 94.3935 91.7888 94.1512L85.4643 88.5865C84.8336 88.0274 84.7717 87.0653 85.3307 86.4288C85.8838 85.7981 86.8459 85.7393 87.4826 86.2952L93.8077 91.8565C94.4378 92.4124 94.5001 93.3778 93.9411 94.0114Z" fill="#010002" stroke="black" stroke-width="0.195676"/>
</g>
<defs>
<clipPath id="clip0_164_89">
<rect width="125" height="125" fill="white"/>
</clipPath>
</defs>
</svg>
